<svg width="167" height="20" viewBox="0 0 167 20" fill="none" xmlns="http://www.w3.org/2000/svg">
<path d="M12.5224 14.9629C12.7989 15.0839 13.0149 15.2567 13.1704 15.4813C13.3259 15.6887 13.4037 15.9393 13.4037 16.233C13.4037 16.7169 13.2482 17.1143 12.9371 17.4253C12.6434 17.7191 12.2632 17.866 11.7967 17.866C11.5547 17.866 11.2869 17.8141 10.9931 17.7105L2.36178 14.3668C1.86066 14.1767 1.46322 13.8743 1.16946 13.4596C0.892983 13.0449 0.754743 12.561 0.754743 12.0081C0.754743 11.4897 0.892983 11.0231 1.16946 10.6084C1.46322 10.1764 1.86066 9.8567 2.36178 9.64934L10.9931 6.30566C11.2869 6.20198 11.5547 6.15014 11.7967 6.15014C12.2632 6.15014 12.6434 6.30566 12.9371 6.6167C13.2482 6.91046 13.4037 7.29926 13.4037 7.7831C13.4037 8.07686 13.3259 8.33606 13.1704 8.5607C13.0149 8.78534 12.7989 8.9495 12.5224 9.05318L4.82418 12.0081L12.5224 14.9629ZM86.2521 7.75718C86.4249 7.32518 86.6668 7.0055 86.9778 6.79814C87.3061 6.5735 87.6604 6.46118 88.0405 6.46118C88.6108 6.46118 89.1205 6.6599 89.5698 7.05734C90.0191 7.4375 90.2437 7.90406 90.2437 8.45702C90.2437 8.71622 90.1746 9.00134 90.0364 9.31238L85.8373 18.3066C85.6473 18.7386 85.3535 19.0756 84.9561 19.3175C84.5759 19.5421 84.1525 19.6545 83.686 19.6545C83.2194 19.6545 82.7961 19.5421 82.4159 19.3175C82.0357 19.0756 81.7506 18.7386 81.5605 18.3066L79.0981 12.8375L76.7913 18.3066C76.6185 18.7386 76.3333 19.0756 75.9359 19.3175C75.5557 19.5421 75.1324 19.6545 74.6658 19.6545C74.1993 19.6545 73.7673 19.5421 73.3698 19.3175C72.9897 19.0756 72.6959 18.7386 72.4885 18.3066L68.3154 9.31238C68.1945 9.05318 68.134 8.7767 68.134 8.48294C68.134 7.9127 68.3673 7.4375 68.8338 7.05734C69.3177 6.6599 69.8533 6.46118 70.4409 6.46118C70.8556 6.46118 71.2271 6.5735 71.5554 6.79814C71.901 7.0055 72.1602 7.33382 72.333 7.7831L74.7954 13.7706L77.3097 7.80902C77.4825 7.37702 77.7503 7.0487 78.1132 6.82406C78.4761 6.59942 78.8649 6.4871 79.2796 6.4871C79.6943 6.4871 80.0831 6.59942 80.446 6.82406C80.8089 7.0487 81.0767 7.37702 81.2495 7.80902L83.8415 13.7965L86.2521 7.75718ZM94.1336 19.6285C93.4769 19.6285 92.924 19.4557 92.4747 19.1101C92.0427 18.7473 91.8267 18.2116 91.8267 17.5031V8.58662C91.8267 7.87814 92.0427 7.3511 92.4747 7.0055C92.924 6.64262 93.4769 6.46118 94.1336 6.46118C94.7902 6.46118 95.3345 6.64262 95.7665 7.0055C96.2158 7.3511 96.4405 7.87814 96.4405 8.58662V17.5031C96.4405 18.2116 96.2158 18.7473 95.7665 19.1101C95.3345 19.4557 94.7902 19.6285 94.1336 19.6285ZM94.1336 4.64678C93.356 4.64678 92.7339 4.44806 92.2673 4.05062C91.8181 3.6359 91.5934 3.09158 91.5934 2.41766C91.5934 1.74374 91.8181 1.20806 92.2673 0.81062C92.7339 0.41318 93.356 0.21446 94.1336 0.21446C94.8939 0.21446 95.5073 0.41318 95.9739 0.81062C96.4405 1.20806 96.6737 1.74374 96.6737 2.41766C96.6737 3.09158 96.4405 3.6359 95.9739 4.05062C95.5246 4.44806 94.9112 4.64678 94.1336 4.64678ZM108.785 16.0775C110.167 16.0775 110.858 16.6391 110.858 17.7623C110.858 18.9028 110.167 19.473 108.785 19.473H100.62C100.015 19.473 99.5228 19.2829 99.1426 18.9028C98.7625 18.5226 98.5724 18.0647 98.5724 17.529C98.5724 16.9588 98.7884 16.4317 99.2204 15.9479L104.664 10.1159H100.49C99.1081 10.1159 98.4169 9.54566 98.4169 8.40518C98.4169 7.28198 99.1081 6.72038 100.49 6.72038H108.344C108.949 6.72038 109.441 6.91046 109.822 7.29062C110.202 7.67078 110.392 8.1287 110.392 8.66438C110.392 9.21734 110.176 9.73574 109.744 10.2196L104.275 16.0775H108.785ZM118.367 6.40934C120.337 6.40934 121.788 6.88454 122.721 7.83494C123.672 8.76806 124.147 10.1937 124.147 12.1117V17.529C124.147 18.1857 123.948 18.7041 123.551 19.0842C123.171 19.4471 122.635 19.6285 121.944 19.6285C121.339 19.6285 120.838 19.4557 120.44 19.1101C120.06 18.7645 119.853 18.298 119.818 17.7105C119.576 18.3325 119.17 18.8164 118.6 19.162C118.03 19.5076 117.347 19.6804 116.552 19.6804C115.671 19.6804 114.876 19.5076 114.168 19.162C113.459 18.7991 112.898 18.3066 112.483 17.6845C112.085 17.0452 111.887 16.3281 111.887 15.5332C111.887 14.6173 112.12 13.8916 112.587 13.3559C113.07 12.8029 113.831 12.4055 114.868 12.1636C115.904 11.9217 117.304 11.8007 119.067 11.8007H119.766V11.4897C119.766 10.8849 119.628 10.4529 119.352 10.1937C119.075 9.91718 118.609 9.77894 117.952 9.77894C117.244 9.77894 116.207 10.0209 114.842 10.5047C114.444 10.6429 114.107 10.7121 113.831 10.7121C113.399 10.7121 113.053 10.5565 112.794 10.2455C112.535 9.93446 112.405 9.52838 112.405 9.02726C112.405 8.6471 112.483 8.33606 112.638 8.09414C112.794 7.85222 113.045 7.63622 113.39 7.44614C113.995 7.1351 114.755 6.88454 115.671 6.69446C116.587 6.50438 117.485 6.40934 118.367 6.40934ZM117.641 16.5959C118.263 16.5959 118.773 16.3799 119.17 15.9479C119.568 15.4986 119.766 14.9284 119.766 14.2372V13.9261H119.352C118.246 13.9261 117.46 14.0298 116.993 14.2372C116.526 14.4273 116.293 14.7556 116.293 15.2221C116.293 15.6196 116.414 15.9479 116.656 16.2071C116.915 16.4663 117.244 16.5959 117.641 16.5959ZM134.82 6.46118C135.407 6.40934 135.874 6.54758 136.219 6.8759C136.565 7.18694 136.738 7.6535 136.738 8.27558C136.738 8.96678 136.574 9.4679 136.245 9.77894C135.934 10.09 135.364 10.2887 134.535 10.3751L133.757 10.4529C132.893 10.5565 132.271 10.833 131.891 11.2823C131.528 11.7143 131.346 12.3105 131.346 13.0708V17.5031C131.346 18.2116 131.122 18.7473 130.672 19.1101C130.24 19.4557 129.696 19.6285 129.04 19.6285C128.383 19.6285 127.83 19.4557 127.381 19.1101C126.949 18.7473 126.733 18.2116 126.733 17.5031V8.53478C126.733 7.87814 126.949 7.36838 127.381 7.0055C127.83 6.64262 128.366 6.46118 128.988 6.46118C129.627 6.46118 130.137 6.63398 130.517 6.97958C130.914 7.32518 131.113 7.80902 131.113 8.4311V8.92358C131.39 8.16326 131.839 7.57574 132.461 7.16102C133.1 6.7463 133.766 6.52166 134.457 6.4871L134.82 6.46118ZM148.484 1.06982C149.175 1.06982 149.737 1.26854 150.169 1.66598C150.618 2.04614 150.843 2.53862 150.843 3.14342V17.5031C150.843 18.1597 150.636 18.6781 150.221 19.0583C149.806 19.4385 149.253 19.6285 148.562 19.6285C147.923 19.6285 147.396 19.4644 146.981 19.1361C146.583 18.7905 146.359 18.3239 146.307 17.7364C145.944 18.3412 145.408 18.8164 144.7 19.162C144.009 19.5076 143.24 19.6804 142.393 19.6804C141.304 19.6804 140.328 19.4039 139.464 18.8509C138.617 18.2807 137.952 17.4858 137.468 16.4663C136.984 15.4468 136.742 14.2804 136.742 12.9671C136.742 11.6538 136.976 10.5047 137.442 9.51974C137.926 8.5175 138.591 7.74854 139.438 7.21286C140.302 6.67718 141.287 6.40934 142.393 6.40934C143.205 6.40934 143.948 6.5735 144.622 6.90182C145.313 7.23014 145.849 7.67078 146.229 8.22374V3.06566C146.229 2.46086 146.428 1.97702 146.825 1.61414C147.24 1.25126 147.793 1.06982 148.484 1.06982ZM143.793 16.233C144.605 16.233 145.227 15.9565 145.659 15.4036C146.091 14.8506 146.307 14.0557 146.307 13.0189C146.307 11.9994 146.091 11.2218 145.659 10.6861C145.227 10.1332 144.605 9.8567 143.793 9.8567C142.998 9.8567 142.384 10.1245 141.952 10.6602C141.52 11.1959 141.304 11.9649 141.304 12.9671C141.304 14.0039 141.52 14.8074 141.952 15.3777C142.402 15.9479 143.015 16.233 143.793 16.233ZM164.684 9.64934C165.185 9.8567 165.574 10.1764 165.851 10.6084C166.144 11.0231 166.291 11.4897 166.291 12.0081C166.291 12.561 166.144 13.0449 165.851 13.4596C165.574 13.8743 165.185 14.1767 164.684 14.3668L156.053 17.7105C155.776 17.8141 155.508 17.866 155.249 17.866C154.783 17.866 154.394 17.7191 154.083 17.4253C153.789 17.1143 153.642 16.7169 153.642 16.233C153.642 15.9393 153.72 15.6887 153.876 15.4813C154.031 15.2567 154.247 15.0839 154.524 14.9629L162.222 12.0081L154.524 9.05318C154.247 8.9495 154.031 8.78534 153.876 8.5607C153.72 8.33606 153.642 8.07686 153.642 7.7831C153.642 7.29926 153.789 6.91046 154.083 6.6167C154.394 6.30566 154.783 6.15014 155.249 6.15014C155.491 6.15014 155.759 6.20198 156.053 6.30566L164.684 9.64934Z" fill="#DD4E50"/>
<path d="M23.7357 16.3367C24.8934 16.4058 25.4723 16.9242 25.4723 17.8919C25.4723 18.4967 25.239 18.946 24.7725 19.2397C24.3059 19.5335 23.6406 19.6545 22.7766 19.6026L22.0509 19.5508C20.4957 19.4298 19.312 18.9633 18.4998 18.1511C17.7049 17.3217 17.3075 16.1725 17.3075 14.7037V10.1159H16.5558C15.1734 10.1159 14.4822 9.54566 14.4822 8.40518C14.4822 7.28198 15.1734 6.72038 16.5558 6.72038H17.3075V5.03558C17.3075 4.37894 17.5149 3.86054 17.9296 3.48038C18.3443 3.08294 18.9059 2.88422 19.6144 2.88422C20.3229 2.88422 20.8845 3.08294 21.2992 3.48038C21.7139 3.86054 21.9213 4.37894 21.9213 5.03558V6.72038H23.3469C24.7293 6.72038 25.4205 7.28198 25.4205 8.40518C25.4205 9.54566 24.7293 10.1159 23.3469 10.1159H21.9213V15.0925C21.9213 15.4209 22.0163 15.6973 22.2064 15.922C22.4137 16.1466 22.6729 16.2676 22.984 16.2849L23.7357 16.3367ZM37.0656 15.3777C37.4631 15.3777 37.7827 15.5332 38.0247 15.8442C38.2839 16.1553 38.4135 16.5613 38.4135 17.0625C38.4135 17.7537 38.0765 18.2807 37.4026 18.6436C36.8151 18.9373 36.1152 19.1879 35.3031 19.3953C34.5082 19.5853 33.7738 19.6804 33.0999 19.6804C31.6829 19.6804 30.4474 19.4125 29.3933 18.8769C28.3392 18.3412 27.5271 17.5722 26.9568 16.57C26.3866 15.5677 26.1015 14.3927 26.1015 13.0449C26.1015 11.7661 26.3693 10.6257 26.905 9.62342C27.4579 8.6039 28.2183 7.81766 29.1859 7.2647C30.1709 6.69446 31.2768 6.40934 32.5037 6.40934C33.696 6.40934 34.7415 6.66854 35.64 7.18694C36.5386 7.70534 37.2298 8.43974 37.7136 9.39014C38.2147 10.3405 38.4653 11.4551 38.4653 12.7338C38.4653 13.1313 38.3703 13.4423 38.1802 13.6669C38.0074 13.8743 37.7482 13.978 37.4026 13.978H30.5597C30.6807 14.8074 30.9485 15.4036 31.3632 15.7665C31.7779 16.1293 32.3914 16.3108 33.2035 16.3108C33.6355 16.3108 34.033 16.2676 34.3959 16.1812C34.7587 16.0775 35.1648 15.9393 35.6141 15.7665C35.8733 15.6628 36.1239 15.5764 36.3658 15.5073C36.625 15.4209 36.8583 15.3777 37.0656 15.3777ZM32.6333 9.51974C32.0285 9.51974 31.5447 9.71846 31.1818 10.1159C30.8189 10.4961 30.6029 11.0577 30.5338 11.8007H34.6032C34.4995 10.2801 33.8429 9.51974 32.6333 9.51974ZM46.7119 19.6804C44.6383 19.6804 42.9967 19.0929 41.7871 17.9178C40.5775 16.7428 39.9727 15.1444 39.9727 13.1226C39.9727 11.7921 40.2665 10.617 40.854 9.5975C41.4415 8.57798 42.2623 7.79174 43.3164 7.23878C44.3878 6.68582 45.606 6.40934 46.9711 6.40934C47.6969 6.40934 48.4226 6.50438 49.1484 6.69446C49.8742 6.88454 50.5135 7.15238 51.0665 7.49798C51.6022 7.8263 51.87 8.32742 51.87 9.00134C51.87 9.53702 51.7404 9.97766 51.4812 10.3233C51.2393 10.6516 50.9196 10.8157 50.5222 10.8157C50.263 10.8157 50.0124 10.7812 49.7705 10.7121C49.5286 10.6257 49.2607 10.5047 48.967 10.3492C48.6214 10.1937 48.3276 10.0813 48.0857 10.0122C47.8438 9.92582 47.5759 9.88262 47.2822 9.88262C45.5714 9.88262 44.7161 10.9281 44.7161 13.0189C44.7161 14.0557 44.9321 14.8506 45.3641 15.4036C45.8134 15.9393 46.4527 16.2071 47.2822 16.2071C47.5759 16.2071 47.8438 16.1725 48.0857 16.1034C48.3449 16.017 48.63 15.8961 48.941 15.7405C49.2866 15.585 49.5631 15.4727 49.7705 15.4036C49.9951 15.3172 50.237 15.274 50.4962 15.274C50.8937 15.274 51.2134 15.4468 51.4553 15.7924C51.7145 16.1207 51.8441 16.5527 51.8441 17.0884C51.8441 17.4167 51.775 17.7191 51.6367 17.9956C51.4985 18.2548 51.3084 18.4535 51.0665 18.5917C49.8742 19.3175 48.4226 19.6804 46.7119 19.6804ZM62.2121 6.40934C63.6982 6.40934 64.8041 6.86726 65.5298 7.7831C66.2556 8.68166 66.6185 10.0554 66.6185 11.9044V17.5031C66.6185 18.1597 66.4111 18.6781 65.9964 19.0583C65.5817 19.4385 65.0201 19.6285 64.3116 19.6285C63.6031 19.6285 63.0415 19.4385 62.6268 19.0583C62.2121 18.6781 62.0047 18.1597 62.0047 17.5031V11.8007C62.0047 10.5565 61.469 9.93446 60.3977 9.93446C59.7065 9.93446 59.1535 10.1591 58.7388 10.6084C58.3414 11.0404 58.1426 11.6279 58.1426 12.3709V17.5031C58.1426 18.1597 57.9353 18.6781 57.5206 19.0583C57.1058 19.4385 56.5442 19.6285 55.8358 19.6285C55.1273 19.6285 54.5657 19.4385 54.151 19.0583C53.7362 18.6781 53.5289 18.1597 53.5289 17.5031V3.14342C53.5289 2.53862 53.7449 2.04614 54.1769 1.66598C54.6089 1.26854 55.1791 1.06982 55.8876 1.06982C56.5615 1.06982 57.1058 1.25126 57.5206 1.61414C57.9353 1.97702 58.1426 2.46086 58.1426 3.06566V8.24966C58.6092 7.64486 59.1881 7.18694 59.8793 6.8759C60.5705 6.56486 61.3481 6.40934 62.2121 6.40934Z" fill="#646464"/>
</svg>
