<svg xmlns="http://www.w3.org/2000/svg" viewBox="0 0 95.56 95.56"><defs><style>.cls-1{fill:#333;}.cls-2{fill:#c1272d;}.cls-3{fill:#e6e6e6;}</style></defs><title>Ресурс 11</title><g id="Слой_2" data-name="Слой 2"><g id="Слой_1-2" data-name="Слой 1"><path class="cls-1" d="M94,69.83,25.73,1.56a5.34,5.34,0,0,0-7.54,0L1.56,18.19a5.34,5.34,0,0,0,0,7.54L69.83,94a5.34,5.34,0,0,0,7.54,0L94,77.37a5.34,5.34,0,0,0,0-7.54ZM90.64,74,74,90.64a.59.59,0,0,1-.84,0L4.91,22.38A.61.61,0,0,1,4.74,22a.58.58,0,0,1,.17-.42L21.54,4.91A.58.58,0,0,1,22,4.74a.61.61,0,0,1,.42.17l3.81,3.82L23.11,11.8a2.52,2.52,0,0,0,0,3.57l.56.56a2,2,0,0,0,2.85,0L30,12.5l3.93,3.93-6.72,6.72a2.52,2.52,0,0,0,0,3.57l.56.56a2,2,0,0,0,2.85,0l7.08-7.08L41,23.54l-3.08,3.07a2.55,2.55,0,0,0,0,3.58l.56.55a2,2,0,0,0,2.85,0l3.44-3.43L67.07,49.6,64,52.68a2.52,2.52,0,0,0,0,3.57l.55.56a2,2,0,0,0,2.86,0l3.44-3.44,3.93,3.93L68.05,64a2.52,2.52,0,0,0,0,3.57l.55.55a2,2,0,0,0,2.86,0l7.08-7.07,3.34,3.33L78.8,67.49a2.52,2.52,0,0,0,0,3.57l.55.56a2,2,0,0,0,2.86,0l3.44-3.44,5,5a.58.58,0,0,1,.18.42A.57.57,0,0,1,90.64,74Z"/><rect class="cls-2" x="35.53" y="9.45" width="17.8" height="82.99" transform="translate(49.04 -16.49) rotate(45)"/><rect class="cls-3" x="68.16" y="13.75" width="17.8" height="9.12" transform="translate(35.52 -49.13) rotate(45)"/><path class="cls-1" d="M79.67,7.27h7.8a5,5,0,0,1,5,5v4.07a0,0,0,0,1,0,0H74.67a0,0,0,0,1,0,0V12.27A5,5,0,0,1,79.67,7.27Z" transform="translate(32.82 -55.64) rotate(45)"/><polygon class="cls-3" points="4.03 91.08 21.14 86.56 8.55 73.96 4.03 91.08"/><polygon class="cls-1" points="4.03 91.08 11.53 89.1 6.01 83.58 4.03 91.08"/></g></g></svg>