<svg xmlns="http://www.w3.org/2000/svg" viewBox="0 0 101.85 94.28"><defs><style>.cls-1{fill:#333;}.cls-2{fill:#c1272d;}</style></defs><title>Ресурс 12</title><g id="Слой_2" data-name="Слой 2"><g id="Слой_1-2" data-name="Слой 1"><path class="cls-1" d="M93.25.21,8.79,0h0A8.62,8.62,0,0,0,.15,8.6L0,69.23a8.62,8.62,0,0,0,8.6,8.64L39.15,78V88H18.83a3.17,3.17,0,0,0,0,6.33H83A3.17,3.17,0,1,0,83,88H62.7V78l30.36.07h0a8.62,8.62,0,0,0,8.62-8.6l.15-60.63A8.62,8.62,0,0,0,93.25.21ZM56.38,88H45.48V78l10.9,0Zm39-18.48a2.31,2.31,0,0,1-2.31,2.29L8.62,71.55a2.31,2.31,0,0,1-2.3-2.3L6.47,8.62a2.31,2.31,0,0,1,2.3-2.3v0l84.45.21a2.3,2.3,0,0,1,2.3,2.31Z"/><path class="cls-1" d="M31.59,39.38,39,32a2.59,2.59,0,0,0-3.66-3.66l-9.2,9.2a2.59,2.59,0,0,0,0,3.66l9.2,9.19A2.58,2.58,0,0,0,39,46.75Z"/><path class="cls-1" d="M75.75,37.55l-9.2-9.2A2.59,2.59,0,0,0,62.89,32l7.37,7.37-7.37,7.37a2.58,2.58,0,1,0,3.66,3.65l9.2-9.19A2.59,2.59,0,0,0,75.75,37.55Z"/><path class="cls-2" d="M46.32,51.16a2,2,0,0,1-1.75-3L55.49,28.62a2,2,0,0,1,3.52,2L48.08,50.13A2,2,0,0,1,46.32,51.16Z"/></g></g></svg>