<svg width="449" height="260" viewBox="0 0 449 260" fill="none" xmlns="http://www.w3.org/2000/svg">
<path d="M425.321 156.927C409.452 198.015 379.618 234.011 338.178 249.831C332.788 251.885 327.285 253.628 321.695 255.051C292.129 262.589 259.785 259.967 232.53 246.231C220.963 240.397 210.416 232.688 198.807 226.938C187.198 221.187 173.94 217.424 161.305 220.262C150.426 222.706 141.247 229.71 132.005 235.949C110.218 250.659 84.0218 262.299 58.2235 257.247C46.3526 254.925 34.6632 248.494 29.1502 237.744C16.9651 213.978 39.9458 185.721 35.2917 159.438C32.3135 142.616 18.7108 130.019 10.2545 115.173C-4.2175 89.7798 -2.5067 56.049 14.4617 32.2547C31.4302 8.46054 62.7554 -4.16103 91.476 1.23674C126.499 7.82161 152.978 37.4605 187.033 47.9488C208.331 54.5022 231.455 52.547 251.796 43.9162C284.661 29.9678 329.813 8.57576 366.797 12.0602C386.465 13.9142 405.755 22.6428 418.736 37.5478C435.146 56.3632 440.065 83.0762 437.328 107.886C435.449 124.681 431.414 141.164 425.321 156.927Z" fill="url(#paint0_linear)"/>
<path d="M435.879 189.426C435.15 189.425 434.423 189.337 433.715 189.164C431.474 188.613 429.528 187.228 428.274 185.291C427.02 183.354 426.553 181.011 426.967 178.741C427.382 176.471 428.648 174.445 430.505 173.077C432.363 171.708 434.674 171.101 436.964 171.378C439.255 171.655 441.354 172.796 442.832 174.568C444.31 176.34 445.056 178.609 444.917 180.912C444.779 183.216 443.766 185.379 442.087 186.962C440.407 188.544 438.187 189.425 435.879 189.426ZM435.879 175.397C434.679 175.402 433.522 175.845 432.625 176.643C431.729 177.442 431.156 178.541 431.013 179.733C430.871 180.924 431.169 182.127 431.852 183.115C432.535 184.102 433.555 184.805 434.72 185.093C435.395 185.255 436.096 185.273 436.778 185.144C437.46 185.016 438.107 184.745 438.677 184.348C439.247 183.952 439.726 183.439 440.083 182.844C440.441 182.249 440.668 181.586 440.75 180.897C440.833 180.208 440.768 179.509 440.561 178.846C440.354 178.184 440.009 177.573 439.549 177.054C439.089 176.534 438.524 176.118 437.892 175.832C437.259 175.547 436.573 175.399 435.879 175.397Z" fill="#E7F6FF"/>
<path d="M427.613 199.031C428.128 196.908 426.824 194.769 424.701 194.254C422.578 193.739 420.439 195.043 419.924 197.166C419.41 199.29 420.713 201.428 422.837 201.943C424.96 202.458 427.098 201.154 427.613 199.031Z" fill="#E7F6FF"/>
<path d="M19.2693 188.563C16.8712 188.511 14.5906 187.515 12.9225 185.791C11.2544 184.067 10.3335 181.755 10.3597 179.357C10.3859 176.958 11.3571 174.667 13.0624 172.98C14.7678 171.293 17.0696 170.347 19.4683 170.347C21.867 170.347 24.1688 171.293 25.8742 172.98C27.5795 174.667 28.5507 176.958 28.577 179.357C28.6032 181.755 27.6823 184.067 26.0142 185.791C24.3461 187.515 22.0654 188.511 19.6673 188.563H19.2693ZM19.2693 174.538H19.0633C17.7681 174.566 16.5363 175.104 15.6352 176.035C14.7341 176.966 14.2366 178.214 14.2506 179.51C14.2647 180.805 14.7891 182.043 15.7101 182.954C16.6311 183.865 17.8743 184.376 19.1698 184.376C20.4653 184.376 21.7085 183.865 22.6295 182.954C23.5505 182.043 24.0749 180.805 24.089 179.51C24.103 178.214 23.6054 176.966 22.7044 176.035C21.8033 175.104 20.5715 174.566 19.2763 174.538H19.2693Z" fill="#E7F6FF"/>
<path d="M12.775 203.85C14.9577 203.756 16.6508 201.91 16.5567 199.727C16.4625 197.544 14.6168 195.851 12.4341 195.945C10.2514 196.04 8.55826 197.885 8.65241 200.068C8.74657 202.251 10.5923 203.944 12.775 203.85Z" fill="#E7F6FF"/>
<path d="M247.571 41.2906C245.398 41.2926 243.295 40.5162 241.644 39.1022C239.993 37.6882 238.903 35.7298 238.571 33.5816C238.239 31.4334 238.687 29.2374 239.834 27.3909C240.981 25.5445 242.751 24.1696 244.824 23.5153C246.897 22.8609 249.136 22.9703 251.135 23.8235C253.134 24.6768 254.762 26.2176 255.723 28.167C256.685 30.1165 256.917 32.3457 256.377 34.4513C255.837 36.5569 254.562 38.3997 252.781 39.6461C251.254 40.7147 249.435 41.2887 247.571 41.2906ZM247.544 27.269C246.272 27.2677 245.048 27.7572 244.129 28.6356C243.209 29.5141 242.664 30.7136 242.606 31.9841C242.549 33.2547 242.985 34.4982 243.822 35.4557C244.659 36.4131 245.834 37.0105 247.1 37.1233C248.367 37.2361 249.629 36.8557 250.622 36.0613C251.615 35.267 252.264 34.1199 252.432 32.8592C252.6 31.5986 252.276 30.3216 251.525 29.2945C250.775 28.2673 249.658 27.5693 248.406 27.3458C248.121 27.295 247.833 27.2693 247.544 27.269Z" fill="#E7F6FF"/>
<path d="M228.999 40.7927C230.788 39.5384 231.221 37.0714 229.966 35.2827C228.712 33.4939 226.245 33.0607 224.456 34.3151C222.668 35.5694 222.234 38.0364 223.489 39.8251C224.743 41.6139 227.21 42.0471 228.999 40.7927Z" fill="#E7F6FF"/>
<path d="M449 88.2156C449 84.3765 447.475 80.6946 444.76 77.9799C442.045 75.2652 438.364 73.7401 434.524 73.7401C434.203 73.7401 433.885 73.7401 433.571 73.7715C433.592 73.4573 433.603 73.1396 433.603 72.8184C433.602 70.761 433.163 68.7273 432.315 66.8529C431.467 64.9786 430.229 63.3066 428.683 61.9483C427.138 60.5901 425.321 59.5769 423.353 58.9763C421.385 58.3756 419.312 58.2013 417.272 58.465C415.231 58.7287 413.271 59.4243 411.52 60.5054C409.77 61.5866 408.27 63.0284 407.121 64.7349C405.971 66.4413 405.199 68.3731 404.855 70.4016C404.511 72.43 404.604 74.5085 405.126 76.4983C403.377 75.2296 401.366 74.3687 399.24 73.9787C397.114 73.5888 394.928 73.6798 392.842 74.245C390.756 74.8102 388.823 75.8353 387.185 77.2451C385.547 78.6548 384.246 80.4135 383.376 82.3919C382.507 84.3703 382.091 86.5184 382.16 88.6784C382.229 90.8385 382.781 92.9557 383.775 94.8746C384.769 96.7936 386.18 98.4657 387.904 99.7681C389.629 101.071 391.623 101.97 393.741 102.401C394.605 104.695 396.038 106.731 397.905 108.319C399.771 109.907 402.01 110.995 404.412 111.482C406.814 111.968 409.301 111.837 411.638 111.1C413.975 110.363 416.087 109.045 417.776 107.268C419.504 108.573 421.502 109.473 423.624 109.902C425.746 110.332 427.937 110.28 430.036 109.751C432.135 109.222 434.089 108.228 435.753 106.844C437.418 105.46 438.75 103.72 439.653 101.752C442.401 100.71 444.766 98.8578 446.436 96.44C448.105 94.0222 448.999 91.1538 449 88.2156Z" fill="white"/>
<path d="M66.8438 53.4198C66.8457 51.518 66.4727 49.6345 65.7463 47.8768C65.0199 46.1192 63.9542 44.5219 62.6102 43.1763C61.2662 41.8307 59.6702 40.7631 57.9135 40.0346C56.1567 39.306 54.2736 38.9308 52.3718 38.9303C52.0506 38.9303 51.7328 38.9303 51.4186 38.9618C51.4396 38.6475 51.45 38.3298 51.45 38.0086C51.4496 35.9512 51.0107 33.9176 50.1624 32.0432C49.3142 30.1688 48.0761 28.4968 46.5308 27.1386C44.9854 25.7804 43.1683 24.7672 41.2006 24.1665C39.2328 23.5659 37.1597 23.3916 35.1193 23.6553C33.0788 23.919 31.1181 24.6145 29.3677 25.6957C27.6173 26.7768 26.1174 28.2187 24.9681 29.9251C23.8188 31.6316 23.0465 33.5634 22.7026 35.5918C22.3587 37.6203 22.4512 39.6987 22.9738 41.6886C21.2243 40.4198 19.2129 39.5589 17.0873 39.169C14.9616 38.7791 12.7756 38.8701 10.6897 39.4353C8.60377 40.0005 6.67088 41.0256 5.03286 42.4353C3.39485 43.8451 2.09327 45.6037 1.22365 47.5821C0.354029 49.5606 -0.0615649 51.7087 0.0073658 53.8687C0.0762965 56.0287 0.628003 58.1459 1.622 60.0649C2.61599 61.9838 4.02705 63.6559 5.75162 64.9584C7.47618 66.2608 9.4705 67.1606 11.5882 67.5916C12.4536 69.8827 13.8862 71.9168 15.7519 73.5034C17.6176 75.0901 19.8553 76.1774 22.2556 76.6637C24.656 77.15 27.1405 77.0193 29.4766 76.2839C31.8126 75.5484 33.9239 74.2323 35.6128 72.4587C37.3407 73.7629 39.3391 74.663 41.4609 75.0926C43.5827 75.5223 45.7739 75.4705 47.873 74.9412C49.9722 74.4119 51.9259 73.4185 53.5903 72.0342C55.2547 70.6498 56.5874 68.9098 57.4902 66.9422C60.2367 65.9027 62.6021 64.0526 64.2727 61.6375C65.9432 59.2224 66.8399 56.3564 66.8438 53.4198Z" fill="white"/>
<path d="M333.147 259.391H124.882V254.852H333.147C333.749 254.852 334.326 255.091 334.752 255.517C335.177 255.942 335.416 256.519 335.416 257.121C335.416 257.723 335.177 258.3 334.752 258.726C334.326 259.152 333.749 259.391 333.147 259.391Z" fill="#426572"/>
<path d="M115.567 259.391H102.834C102.232 259.391 101.655 259.152 101.229 258.726C100.803 258.3 100.564 257.723 100.564 257.121C100.564 256.519 100.803 255.942 101.229 255.517C101.655 255.091 102.232 254.852 102.834 254.852H115.567C116.169 254.852 116.746 255.091 117.172 255.517C117.597 255.942 117.836 256.519 117.836 257.121C117.836 257.723 117.597 258.3 117.172 258.726C116.746 259.152 116.169 259.391 115.567 259.391Z" fill="#426572"/>
<path d="M94.5694 259.391H90.5124C89.9105 259.391 89.3332 259.152 88.9076 258.726C88.482 258.3 88.2429 257.723 88.2429 257.121C88.2429 256.519 88.482 255.942 88.9076 255.517C89.3332 255.091 89.9105 254.852 90.5124 254.852H94.5694C95.1713 254.852 95.7486 255.091 96.1742 255.517C96.5998 255.942 96.8389 256.519 96.8389 257.121C96.8389 257.723 96.5998 258.3 96.1742 258.726C95.7486 259.152 95.1713 259.391 94.5694 259.391Z" fill="#426572"/>
<path d="M406.174 259.391H342.162V254.852H406.174C406.776 254.852 407.353 255.091 407.779 255.517C408.204 255.942 408.443 256.519 408.443 257.121C408.443 257.723 408.204 258.3 407.779 258.726C407.353 259.152 406.776 259.391 406.174 259.391Z" fill="#426572"/>
<path d="M78.9068 259.391H14.8911V254.852H78.9068C79.5087 254.852 80.0859 255.091 80.5115 255.517C80.9371 255.942 81.1762 256.519 81.1762 257.121C81.1762 257.723 80.9371 258.3 80.5115 258.726C80.0859 259.152 79.5087 259.391 78.9068 259.391Z" fill="#426572"/>
<path d="M248.591 61.0382V257.369H35.9062V61.0382C35.9099 59.9754 36.3338 58.9571 37.0853 58.2056C37.8368 57.454 38.8551 57.0302 39.9179 57.0265H244.576C244.817 57.0266 245.058 57.0488 245.295 57.0929C246.218 57.263 247.053 57.7505 247.655 58.4709C248.257 59.1913 248.588 60.0994 248.591 61.0382Z" fill="white"/>
<path d="M39.2509 76.4215H249.258V62.3161L245.243 57.0265H61.3238H39.9212L36.5764 62.3161V76.4215H39.2509Z" fill="#E2F2FF"/>
<path d="M251.353 259.464H34.4817V61.0382C34.4835 59.4193 35.1275 57.8671 36.2723 56.7223C37.4171 55.5775 38.9692 54.9335 40.5882 54.9317H245.243C246.862 54.9335 248.414 55.5775 249.559 56.7223C250.704 57.8671 251.348 59.4193 251.349 61.0382L251.353 259.464ZM38.6714 255.274H247.163V61.0382C247.162 60.5302 246.96 60.0431 246.601 59.6839C246.241 59.3246 245.754 59.1224 245.246 59.1214H40.5882C40.0801 59.1224 39.5931 59.3246 39.2339 59.6839C38.8746 60.0431 38.6723 60.5302 38.6714 61.0382V255.274Z" fill="#426572"/>
<path d="M48.7894 70.1509C50.2665 70.1509 51.4639 68.9535 51.4639 67.4764C51.4639 65.9994 50.2665 64.802 48.7894 64.802C47.3124 64.802 46.115 65.9994 46.115 67.4764C46.115 68.9535 47.3124 70.1509 48.7894 70.1509Z" fill="#CADCE8"/>
<path d="M56.8129 70.1509C58.2899 70.1509 59.4873 68.9535 59.4873 67.4764C59.4873 65.9994 58.2899 64.802 56.8129 64.802C55.3358 64.802 54.1384 65.9994 54.1384 67.4764C54.1384 68.9535 55.3358 70.1509 56.8129 70.1509Z" fill="#CADCE8"/>
<path d="M64.8397 70.1509C66.3168 70.1509 67.5142 68.9535 67.5142 67.4764C67.5142 65.9994 66.3168 64.802 64.8397 64.802C63.3627 64.802 62.1653 65.9994 62.1653 67.4764C62.1653 68.9535 63.3627 70.1509 64.8397 70.1509Z" fill="#CADCE8"/>
<path d="M238.801 64.7985H76.1381C74.8847 64.7985 73.8687 65.8146 73.8687 67.0679V67.8779C73.8687 69.1313 74.8847 70.1474 76.1381 70.1474H238.801C240.054 70.1474 241.07 69.1313 241.07 67.8779V67.0679C241.07 65.8146 240.054 64.7985 238.801 64.7985Z" fill="#CADCE8"/>
<path d="M390.04 22.9151V257.369H177.365V22.9151C177.369 21.8523 177.793 20.834 178.545 20.0825C179.296 19.331 180.314 18.9071 181.377 18.9034H386.032C386.273 18.9035 386.514 18.9257 386.751 18.9698C387.673 19.1414 388.506 19.6295 389.106 20.3498C389.707 21.07 390.037 21.9774 390.04 22.9151Z" fill="white"/>
<path d="M180.703 38.2984H390.71V24.193L386.695 18.9034H202.776H184.718L178.029 24.193V38.2984H180.703Z" fill="#E2F2FF"/>
<path d="M392.788 259.464H175.934V22.9151C175.936 21.2961 176.58 19.744 177.725 18.5992C178.869 17.4544 180.422 16.8104 182.041 16.8086H386.695C388.312 16.8141 389.86 17.4597 391.002 18.6041C392.144 19.7485 392.786 21.2985 392.788 22.9151V259.464ZM180.106 255.274H388.598V22.9151C388.597 22.407 388.395 21.92 388.036 21.5607C387.676 21.2015 387.189 20.9992 386.681 20.9983H182.041C181.533 20.9992 181.046 21.2015 180.686 21.5607C180.327 21.92 180.125 22.407 180.124 22.9151L180.106 255.274Z" fill="#426572"/>
<path d="M190.242 32.0278C191.719 32.0278 192.916 30.8304 192.916 29.3534C192.916 27.8763 191.719 26.6789 190.242 26.6789C188.765 26.6789 187.567 27.8763 187.567 29.3534C187.567 30.8304 188.765 32.0278 190.242 32.0278Z" fill="#CADCE8"/>
<path d="M198.265 32.0278C199.742 32.0278 200.94 30.8304 200.94 29.3534C200.94 27.8763 199.742 26.6789 198.265 26.6789C196.788 26.6789 195.591 27.8763 195.591 29.3534C195.591 30.8304 196.788 32.0278 198.265 32.0278Z" fill="#CADCE8"/>
<path d="M206.292 32.0278C207.769 32.0278 208.967 30.8304 208.967 29.3534C208.967 27.8763 207.769 26.6789 206.292 26.6789C204.815 26.6789 203.618 27.8763 203.618 29.3534C203.618 30.8304 204.815 32.0278 206.292 32.0278Z" fill="#CADCE8"/>
<path d="M380.253 26.6789H217.59C216.337 26.6789 215.321 27.695 215.321 28.9484V29.7584C215.321 31.0118 216.337 32.0278 217.59 32.0278H380.253C381.507 32.0278 382.523 31.0118 382.523 29.7584V28.9484C382.523 27.695 381.507 26.6789 380.253 26.6789Z" fill="#CADCE8"/>
<path d="M247.38 63.4159H203.649V113.242H247.38V63.4159Z" fill="#E8837E"/>
<path d="M355.195 63.4159H251.506V113.242H355.195V63.4159Z" fill="#E8837E"/>
<path d="M355.195 118.759H306.238V168.585H355.195V118.759Z" fill="#DDE4ED"/>
<path d="M302.111 118.759H204.201V168.585H302.111V118.759Z" fill="#DDE4ED"/>
<path d="M355.471 174.102H204.201V223.928H355.471V174.102Z" fill="#DDE4ED"/>
<path d="M91.228 185.065H57.1829V188.556H91.228V185.065Z" fill="#DDE4ED"/>
<path d="M91.228 194.429H57.1829V197.92H91.228V194.429Z" fill="#DDE4ED"/>
<path d="M91.228 203.789H57.1829V207.281H91.228V203.789Z" fill="#DDE4ED"/>
<path d="M91.228 213.154H57.1829V216.645H91.228V213.154Z" fill="#DDE4ED"/>
<path d="M91.228 222.518H57.1829V226.009H91.228V222.518Z" fill="#DDE4ED"/>
<path d="M91.228 231.882H57.1829V235.373H91.228V231.882Z" fill="#DDE4ED"/>
<path d="M74.8252 159.996L81.5567 148.454L91.9857 157.203V165.195H63.0486L70.1153 155.436L74.8252 159.996Z" fill="#DDE4ED"/>
<path d="M105.306 154.546H95.2119V142.263L97.23 140.329L105.306 148.572V154.546Z" fill="#DDE4ED"/>
<path d="M67.8248 153.541C68.9155 153.54 69.9815 153.216 70.8878 152.609C71.7942 152.002 72.5003 151.141 72.9167 150.132C73.3331 149.124 73.4412 148.016 73.2272 146.946C73.0132 145.877 72.4869 144.895 71.7147 144.124C70.9425 143.354 69.9592 142.83 68.8892 142.619C67.8192 142.408 66.7105 142.519 65.7035 142.938C64.6966 143.357 63.8365 144.065 63.2321 144.973C62.6278 145.881 62.3063 146.947 62.3084 148.038C62.3157 149.498 62.8997 150.895 63.9331 151.926C64.9664 152.956 66.3653 153.537 67.8248 153.541Z" fill="#DDE4ED"/>
<path opacity="0.2" d="M312.46 110.351V254.695H99.7786V110.351C99.7655 109.272 100.18 108.232 100.932 107.457C101.683 106.682 102.711 106.237 103.79 106.218H308.445C309.525 106.236 310.553 106.681 311.306 107.456C312.058 108.23 312.473 109.272 312.46 110.351Z" fill="#606060"/>
<path d="M304.768 117.219V257.369H92.0869V117.219C92.0906 116.156 92.5144 115.138 93.266 114.386C94.0175 113.635 95.0358 113.211 96.0986 113.207H300.753C300.994 113.207 301.235 113.23 301.472 113.274C302.396 113.444 303.23 113.931 303.832 114.652C304.434 115.372 304.765 116.28 304.768 117.219Z" fill="white"/>
<path d="M95.4318 132.599H305.435V118.493L301.424 113.204H117.501H94.4297L92.7573 118.493V132.599H95.4318Z" fill="#E2F2FF"/>
<path d="M104.967 125.661C106.444 125.661 107.641 124.464 107.641 122.987C107.641 121.51 106.444 120.312 104.967 120.312C103.49 120.312 102.292 121.51 102.292 122.987C102.292 124.464 103.49 125.661 104.967 125.661Z" fill="#CADCE8"/>
<path d="M112.994 125.661C114.471 125.661 115.668 124.464 115.668 122.987C115.668 121.51 114.471 120.312 112.994 120.312C111.517 120.312 110.319 121.51 110.319 122.987C110.319 124.464 111.517 125.661 112.994 125.661Z" fill="#CADCE8"/>
<path d="M121.021 125.661C122.498 125.661 123.695 124.464 123.695 122.987C123.695 121.51 122.498 120.312 121.021 120.312C119.544 120.312 118.346 121.51 118.346 122.987C118.346 124.464 119.544 125.661 121.021 125.661Z" fill="#CADCE8"/>
<path d="M294.982 120.312H132.319C131.066 120.312 130.05 121.329 130.05 122.582V123.392C130.05 124.645 131.066 125.661 132.319 125.661H294.982C296.235 125.661 297.251 124.645 297.251 123.392V122.582C297.251 121.329 296.235 120.312 294.982 120.312Z" fill="#CADCE8"/>
<path d="M152.988 221.924C158.144 221.924 162.324 217.744 162.324 212.588C162.324 207.432 158.144 203.252 152.988 203.252C147.832 203.252 143.652 207.432 143.652 212.588C143.652 217.744 147.832 221.924 152.988 221.924Z" fill="#DDE4ED"/>
<path d="M198.848 221.924C204.005 221.924 208.184 217.744 208.184 212.588C208.184 207.432 204.005 203.252 198.848 203.252C193.692 203.252 189.512 207.432 189.512 212.588C189.512 217.744 193.692 221.924 198.848 221.924Z" fill="#DDE4ED"/>
<path d="M244.708 221.924C249.865 221.924 254.045 217.744 254.045 212.588C254.045 207.432 249.865 203.252 244.708 203.252C239.552 203.252 235.372 207.432 235.372 212.588C235.372 217.744 239.552 221.924 244.708 221.924Z" fill="#DDE4ED"/>
<path d="M273.747 150.36H123.953C121.639 150.36 119.764 152.236 119.764 154.55V188.975C119.764 191.289 121.639 193.165 123.953 193.165H273.747C276.061 193.165 277.937 191.289 277.937 188.975V154.55C277.937 152.236 276.061 150.36 273.747 150.36Z" fill="#A8EF9E"/>
<path d="M196.628 233.205H121.052V237.395H196.628V233.205Z" fill="#E8EDF7"/>
<path d="M242.442 241.563H120.72V245.753H242.442V241.563Z" fill="#E8EDF7"/>
<path d="M279.56 233.205H207.329V237.395H279.56V233.205Z" fill="#E8EDF7"/>
<path opacity="0.3" d="M97.5442 257.034H94.4019V134.076H304.639V137.218H97.5442V257.034Z" fill="#C1CEDE"/>
<path d="M304.803 130.504H92.9946V134.694H304.803V130.504Z" fill="#426572"/>
<path d="M307.53 259.464H90.6624V117.219C90.6642 115.6 91.3082 114.048 92.453 112.903C93.5978 111.758 95.1499 111.114 96.7689 111.113H301.423C303.042 111.114 304.595 111.758 305.739 112.903C306.884 114.048 307.528 115.6 307.53 117.219V259.464ZM94.8486 255.274H303.34V117.219C303.339 116.711 303.137 116.224 302.778 115.865C302.419 115.505 301.932 115.303 301.423 115.302H96.7689C96.2608 115.303 95.7738 115.505 95.4145 115.865C95.0553 116.224 94.853 116.711 94.8521 117.219L94.8486 255.274Z" fill="#426572"/>
<path d="M361.152 231.896H322.362V234.689H361.152V231.896Z" fill="#DDE4ED"/>
<defs>
<linearGradient id="paint0_linear" x1="0.461033" y1="129.6" x2="438.037" y2="129.6" gradientUnits="userSpaceOnUse">
<stop stop-color="#C5E9FA"/>
<stop offset="1" stop-color="#C4F4EA"/>
</linearGradient>
</defs>
</svg>
