<?xml version="1.0" encoding="utf-8"?>
<!-- Generator: Adobe Illustrator 23.0.2, SVG Export Plug-In . SVG Version: 6.00 Build 0)  -->
<svg version="1.1" id="Слой_1" xmlns="http://www.w3.org/2000/svg" xmlns:xlink="http://www.w3.org/1999/xlink" x="0px" y="0px"
	 viewBox="0 0 618 1066" style="enable-background:new 0 0 618 1066;" xml:space="preserve">
<style type="text/css">
	.st0{fill:#333333;}
	.st1{fill:#C1272D;}
	.st2{fill:#E6E6E6;}
	.st3{fill:#B3B3B3;}
</style>
<g id="Design">
	<path class="st0" d="M98.4,397.2l-68.6-68.6c-1-1-2.4-1.6-3.8-1.6c-1.4,0-2.8,0.6-3.8,1.6L5.6,345.3c-1,1-1.6,2.4-1.6,3.8
		c0,1.4,0.6,2.8,1.6,3.8l68.6,68.6c1,1,2.4,1.6,3.8,1.6c1.4,0,2.8-0.6,3.8-1.6l16.7-16.7c1-1,1.6-2.4,1.6-3.8
		C100,399.5,99.4,398.2,98.4,397.2z M95.1,401.3l-16.7,16.7c-0.1,0.1-0.1,0.1-0.2,0.1c-0.1,0-0.2,0-0.2,0s-0.2,0-0.2,0
		c-0.1,0-0.1-0.1-0.2-0.1L8.9,349.5c-0.1-0.1-0.2-0.2-0.2-0.4c0-0.1,0-0.2,0-0.2c0-0.1,0.1-0.1,0.1-0.2l16.7-16.7
		c0.1-0.1,0.1-0.1,0.2-0.1c0.1,0,0.2,0,0.2,0c0.2,0,0.3,0.1,0.4,0.2l3.8,3.8l-3.1,3.1c-0.2,0.2-0.4,0.5-0.6,0.8
		c-0.1,0.3-0.2,0.6-0.2,1s0.1,0.7,0.2,1c0.1,0.3,0.3,0.6,0.6,0.8l0.6,0.6c0.2,0.2,0.4,0.3,0.7,0.4c0.2,0.1,0.5,0.2,0.8,0.2
		c0.3,0,0.5-0.1,0.8-0.2c0.2-0.1,0.5-0.3,0.7-0.4l3.5-3.4l3.9,3.9l-6.8,6.8c-0.2,0.2-0.4,0.5-0.6,0.8c-0.1,0.3-0.2,0.6-0.2,1
		c0,0.3,0.1,0.7,0.2,1c0.1,0.3,0.3,0.6,0.6,0.8l0.6,0.6c0.2,0.2,0.4,0.3,0.7,0.4c0.2,0.1,0.5,0.2,0.8,0.2c0.3,0,0.5-0.1,0.8-0.2
		s0.5-0.3,0.7-0.4l7.1-7.1l3.3,3.4l-3.1,3.1c-0.5,0.5-0.7,1.1-0.7,1.8s0.3,1.3,0.7,1.8l0.6,0.6c0.2,0.2,0.4,0.3,0.7,0.4
		s0.5,0.2,0.8,0.2c0.3,0,0.5-0.1,0.8-0.2c0.2-0.1,0.5-0.3,0.7-0.4l3.5-3.4l22.4,22.4l-3.1,3.1c-0.2,0.2-0.4,0.5-0.6,0.8
		c-0.1,0.3-0.2,0.6-0.2,1s0.1,0.7,0.2,1c0.1,0.3,0.3,0.6,0.6,0.8l0.6,0.6c0.2,0.2,0.4,0.3,0.7,0.4c0.2,0.1,0.5,0.2,0.8,0.2
		c0.3,0,0.5-0.1,0.8-0.2c0.2-0.1,0.5-0.3,0.7-0.4l3.5-3.5l3.9,3.9l-6.8,6.7c-0.2,0.2-0.4,0.5-0.6,0.8c-0.1,0.3-0.2,0.6-0.2,1
		c0,0.3,0.1,0.7,0.2,1c0.1,0.3,0.3,0.6,0.6,0.8l0.6,0.6c0.2,0.2,0.4,0.3,0.7,0.4c0.2,0.1,0.5,0.2,0.8,0.2c0.3,0,0.5-0.1,0.8-0.2
		c0.2-0.1,0.5-0.3,0.7-0.4l7.1-7.1l3.4,3.3l-3.1,3.1c-0.2,0.2-0.4,0.5-0.6,0.8c-0.1,0.3-0.2,0.6-0.2,1s0.1,0.7,0.2,1
		c0.1,0.3,0.3,0.6,0.6,0.8l0.6,0.6c0.2,0.2,0.4,0.3,0.7,0.4c0.2,0.1,0.5,0.2,0.8,0.2c0.3,0,0.5-0.1,0.8-0.2c0.2-0.1,0.5-0.3,0.7-0.4
		l3.5-3.5l5,5c0.1,0.1,0.1,0.1,0.1,0.2c0,0.1,0,0.2,0,0.2c0,0.1,0,0.2-0.1,0.2S95.1,401.3,95.1,401.3z"/>
	<path class="st1" d="M84.4,355l-12.6-12.6l-59,59L25.5,414L84.4,355z"/>
	<path class="st2" d="M91,348.5l-12.6-12.6l-6.5,6.5L84.5,355L91,348.5z"/>
	<path class="st0" d="M88.4,332.9l5.5,5.5c0.9,0.9,1.5,2.2,1.5,3.6s-0.5,2.6-1.5,3.6l-2.9,2.9l-12.6-12.6l2.9-2.9
		c0.9-0.9,2.2-1.5,3.6-1.5C86.2,331.4,87.5,331.9,88.4,332.9z"/>
	<path class="st2" d="M8,418.5l17.2-4.5l-12.6-12.7L8,418.5z"/>
	<path class="st0" d="M8,418.5l7.5-2L10,411L8,418.5z"/>
</g>
<g id="Development">
	<path class="st0" d="M608.9,491.2l-86-0.2c-1.2,0-2.3,0.2-3.4,0.7c-1.1,0.4-2,1.1-2.9,1.9c-0.8,0.8-1.5,1.8-1.9,2.8
		c-0.4,1.1-0.7,2.2-0.7,3.4l-0.2,61.7c0,1.2,0.2,2.3,0.7,3.4c0.4,1.1,1.1,2,1.9,2.9c0.8,0.8,1.8,1.5,2.8,1.9
		c1.1,0.4,2.2,0.7,3.4,0.7l31.1,0.1v10.2h-20.7c-0.8,0-1.6,0.4-2.2,1c-0.6,0.6-0.9,1.4-0.9,2.2c0,0.8,0.3,1.6,0.9,2.2
		c0.6,0.6,1.3,1,2.2,1h65.3c0.4,0,0.9,0,1.3-0.2c0.4-0.2,0.8-0.4,1.1-0.7c0.3-0.3,0.6-0.7,0.7-1.1c0.2-0.4,0.3-0.8,0.3-1.3
		c0-0.4-0.1-0.9-0.3-1.3c-0.2-0.4-0.4-0.8-0.7-1.1c-0.3-0.3-0.7-0.5-1.1-0.7c-0.4-0.2-0.9-0.2-1.3-0.2h-20.7v-10.2l30.9,0.1
		c2.3,0,4.6-0.9,6.2-2.6c1.6-1.6,2.6-3.9,2.6-6.2l0.2-61.7c0-2.3-0.9-4.5-2.6-6.2C613.4,492.2,611.2,491.2,608.9,491.2z
		 M571.4,580.6h-11.1v-10.2h11.1V580.6z M611.1,561.7c0,0.6-0.3,1.2-0.7,1.6c-0.4,0.4-1,0.7-1.7,0.7l-85.9-0.3
		c-0.6,0-1.2-0.2-1.7-0.7c-0.4-0.4-0.7-1-0.7-1.7l0.2-61.7c0-0.6,0.2-1.2,0.7-1.7c0.4-0.4,1-0.7,1.7-0.7l85.9,0.2
		c0.3,0,0.6,0.1,0.9,0.2c0.3,0.1,0.5,0.3,0.8,0.5c0.2,0.2,0.4,0.5,0.5,0.8c0.1,0.3,0.2,0.6,0.2,0.9L611.1,561.7z"/>
	<path class="st0" d="M546.1,531.1l7.5-7.5c0.5-0.5,0.7-1.2,0.7-1.8c0-0.7-0.3-1.3-0.8-1.8c-0.5-0.5-1.1-0.8-1.8-0.8
		c-0.7,0-1.3,0.2-1.8,0.7l-9.4,9.4c-0.5,0.5-0.8,1.2-0.8,1.9s0.3,1.4,0.8,1.9l9.4,9.4c0.5,0.5,1.2,0.8,1.9,0.8
		c0.7,0,1.4-0.3,1.9-0.8c0.5-0.5,0.8-1.2,0.8-1.9c0-0.7-0.3-1.4-0.8-1.9L546.1,531.1z"/>
	<path class="st0" d="M591.1,529.2l-9.4-9.4c-0.5-0.4-1.2-0.7-1.8-0.7s-1.3,0.3-1.8,0.8c-0.5,0.5-0.8,1.1-0.8,1.8
		c0,0.7,0.2,1.3,0.7,1.8l7.5,7.5l-7.5,7.5c-0.2,0.2-0.4,0.5-0.6,0.9c-0.1,0.3-0.2,0.7-0.2,1c0,0.3,0.1,0.7,0.2,1
		c0.1,0.3,0.3,0.6,0.6,0.9c0.2,0.2,0.5,0.4,0.9,0.6c0.3,0.1,0.7,0.2,1,0.2c0.3,0,0.7-0.1,1-0.2c0.3-0.1,0.6-0.3,0.9-0.6l9.4-9.4
		c0.5-0.5,0.8-1.2,0.8-1.9S591.6,529.7,591.1,529.2z"/>
	<path class="st1" d="M561.1,543.1c-0.4,0-0.7-0.1-1-0.3c-0.3-0.2-0.6-0.4-0.8-0.7c-0.2-0.3-0.3-0.7-0.3-1c0-0.4,0.1-0.7,0.3-1
		l11.1-19.9c0.3-0.5,0.7-0.8,1.2-1c0.5-0.1,1.1-0.1,1.6,0.2c0.5,0.3,0.8,0.7,1,1.2c0.1,0.5,0.1,1.1-0.2,1.6L562.9,542
		c-0.2,0.3-0.4,0.6-0.8,0.8C561.9,543,561.5,543.1,561.1,543.1z"/>
</g>
<g id="Planning">
	<path class="st0" d="M533.8,191.7L518.7,178l3.8-4.2l11.2,10.1l17-15.9l3.9,4.2L533.8,191.7z"/>
	<path class="st1" d="M609.1,180.7h-44.6c-1-0.1-1.9-0.6-2.5-1.3c-0.6-0.7-1-1.7-1-2.6c0-1,0.4-1.9,1-2.6c0.6-0.7,1.5-1.2,2.5-1.3
		h44.6c1,0,2.1,0.4,2.8,1.2s1.2,1.7,1.2,2.8c0,1.1-0.4,2.1-1.2,2.8S610.1,180.8,609.1,180.7L609.1,180.7z"/>
	<path class="st0" d="M533.1,222.8L518,209.2l3.8-4.2l11.2,10.1l17-15.9l3.9,4.2L533.1,222.8z"/>
	<path class="st1" d="M609.1,214.7h-44.6c-1-0.1-1.8-0.6-2.5-1.3c-0.6-0.7-1-1.7-1-2.6c0-1,0.4-1.9,1-2.6c0.6-0.7,1.5-1.2,2.5-1.3
		h44.6c1,0.1,1.8,0.6,2.5,1.3c0.6,0.7,1,1.7,1,2.6c0,1-0.4,1.9-1,2.6C610.9,214.1,610,214.5,609.1,214.7z"/>
	<path class="st0" d="M533.1,254L518,240.3l3.8-4.2l11.2,10.1l17-15.9l3.9,4.2L533.1,254z"/>
	<path class="st1" d="M609.1,248.6h-44.6c-1-0.1-1.8-0.6-2.5-1.3c-0.6-0.7-1-1.7-1-2.6c0-1,0.4-1.9,1-2.6c0.6-0.7,1.5-1.2,2.5-1.3
		h44.6c1,0.1,1.8,0.6,2.5,1.3c0.6,0.7,1,1.7,1,2.6c0,1-0.4,1.9-1,2.6C610.9,248,610,248.5,609.1,248.6z"/>
</g>
<g id="Research">
	<path class="st0" d="M57.5,33.2H25v3h32.5V33.2z"/>
	<path class="st0" d="M57.5,44.6H25v3h32.5V44.6z"/>
	<path class="st0" d="M57.5,55.9H25v3h32.5V55.9z"/>
	<path class="st0" d="M57.5,67.2H25v3h32.5V67.2z"/>
	<path class="st0" d="M72.2,93h-62c-1.4,0-2.7-0.6-3.7-1.5c-1-1-1.5-2.3-1.5-3.7V5.2c0-1.4,0.6-2.7,1.5-3.7c1-1,2.3-1.5,3.7-1.5h47
		c5.4,0,10.5,2.1,14.3,5.9c3.8,3.8,5.9,8.9,5.9,14.3v67.5c0,1.4-0.6,2.7-1.5,3.7C75,92.4,73.6,93,72.2,93z M10.5,87.5H72V20.2
		c0-3.9-1.6-7.7-4.3-10.4c-2.8-2.8-6.5-4.3-10.4-4.3H10.5V87.5z"/>
	<path class="st1" d="M98.1,85.7L84.3,71.8c0.2-0.3,0.5-0.6,0.7-0.9c3.4-4.5,5.3-10,5.3-15.6c0-5.1-1.5-10.1-4.4-14.4
		c-2.8-4.3-6.9-7.6-11.6-9.5c-4.7-2-9.9-2.5-15-1.5c-5,1-9.6,3.5-13.3,7.1c-3.6,3.6-6.1,8.2-7.1,13.3c-1,5-0.5,10.2,1.5,15
		c2,4.7,5.3,8.8,9.5,11.6c4.3,2.8,9.3,4.4,14.4,4.4c6.1,0,12.1-2.1,16.7-6.1l13.8,13.8c0.4,0.4,1,0.6,1.6,0.6c0.6,0,1.1-0.2,1.6-0.7
		c0.4-0.4,0.6-1,0.7-1.6C98.7,86.7,98.5,86.1,98.1,85.7z M44,55.3c-0.1-2.7,0.4-5.4,1.4-7.9c1-2.5,2.5-4.8,4.4-6.8
		c1.9-1.9,4.2-3.5,6.7-4.5c2.5-1.1,5.2-1.6,7.9-1.6c2.7,0,5.4,0.5,7.9,1.6c2.5,1.1,4.8,2.6,6.7,4.5c1.9,1.9,3.4,4.2,4.4,6.8
		c1,2.5,1.5,5.2,1.4,7.9c0,5.4-2.1,10.6-6,14.4c-3.8,3.8-9,6-14.4,6c-5.4,0-10.6-2.1-14.4-6C46.2,65.9,44,60.7,44,55.3z"/>
</g>
<g id="Launch">
	<path class="st0" d="M615.5,808.5c-0.1-0.5-0.3-1-0.7-1.3c-0.4-0.4-0.8-0.6-1.3-0.7c-0.5-0.1-13.3-2.5-30,4
		c-15.9,6.2-28.1,17.7-37.4,30.3c-2.9-1.8-6.3-2.6-9.7-2.5c-7.3,0.3-14.6,5-21.9,13.8c-0.3,0.4-0.5,0.8-0.6,1.3
		c-0.1,0.5,0,0.9,0.2,1.4c0.2,0.4,0.5,0.8,0.9,1.1c0.4,0.3,0.8,0.4,1.3,0.4c7.7,0.4,15.1,1.3,18.8,2.2c-1.9,3.5-3.5,7-4.9,10.3
		c-0.2,0.5-0.3,1-0.2,1.5c0.1,0.5,0.3,1,0.7,1.3l4.6,4.6c-3.3,5.4-5.8,10.8-5.8,13.9c0,0.7,0.3,1.3,0.7,1.8c0.5,0.5,1.1,0.7,1.8,0.7
		c3,0,8.4-2.5,13.9-5.8l4.6,4.5c0.2,0.2,0.5,0.4,0.8,0.5c0.3,0.1,0.6,0.2,1,0.2c0.3,0,0.7-0.1,1-0.2c3.3-1.5,6.7-3.1,10.3-5
		c1,3.9,1.9,11.9,2.2,18.8c0,0.5,0.2,0.9,0.4,1.3c0.3,0.4,0.6,0.7,1.1,0.9c0.3,0.1,0.7,0.2,1,0.2c0.6,0,1.2-0.2,1.6-0.6
		c8.8-7.2,13.4-14.6,13.8-21.8c0.2-3.4-0.7-6.8-2.5-9.7c12.6-9.3,24.1-21.5,30.3-37.4C618,821.8,615.6,809,615.5,808.5z
		 M521.9,851.5c5-5.1,10-7.9,14.7-8.1c2.3-0.1,4.7,0.4,6.7,1.5c-2,3-3.9,6-5.6,9C533.6,852.7,527.1,851.9,521.9,851.5z M539.4,861.3
		l3.7,3.7c-1.6,2-3.3,4.3-4.9,6.8l-2.6-2.6C536.8,866.5,538.1,863.9,539.4,861.3z M535.6,886.4c1-2.3,2.2-4.5,3.5-6.6
		c0.5-0.9,1-1.7,1.6-2.6c0.4-0.6,0.8-1.2,1.1-1.8c1.6-2.4,3.3-4.8,4.9-6.8l0.5-0.6c1-1.3,2-2.4,2.8-3.2c0.4-0.4,0.8-0.8,1.1-1
		c1-0.9,2.3-1.4,3.6-1.4c0.5,0,1,0.1,1.5,0.2c0.8,0.2,1.5,0.6,2.1,1.2c0.6,0.6,1,1.3,1.2,2.1c0.3,0.9,0.3,1.8,0.1,2.7
		c-0.2,0.9-0.7,1.7-1.3,2.4c-0.3,0.4-0.6,0.8-1,1.1c-1.1,1.1-2.3,2.1-3.5,3l-0.3,0.3c-2,1.6-4.4,3.3-6.8,4.9
		c-0.6,0.4-1.3,0.8-1.9,1.2c-0.8,0.5-1.7,1-2.5,1.5C540.1,884.2,537.9,885.4,535.6,886.4z M552.8,886.5l-2.6-2.6
		c2.4-1.7,4.8-3.4,6.8-4.9l3.7,3.7C558.2,883.9,555.5,885.2,552.8,886.5z M578.6,885.3c-0.2,4.7-3,9.7-8.1,14.8
		c-0.4-5.2-1.1-11.7-2.5-15.7c3-1.7,6-3.6,9-5.6C578.2,880.8,578.7,883,578.6,885.3z M606.7,837c-6.7,16.8-20.9,31.6-41.3,43.2
		l-4.5-4.5c0.5-0.5,0.9-1,1.3-1.5c1.1-1.3,1.9-2.9,2.3-4.5c0.4-1.7,0.3-3.4-0.1-5.1c-0.4-1.7-1.3-3.2-2.5-4.4
		c-1.2-1.2-2.7-2.1-4.4-2.5c-1.7-0.5-3.4-0.5-5.1-0.1c-1.7,0.4-3.2,1.2-4.5,2.3c-0.5,0.4-1,0.9-1.4,1.3l-4.5-4.5
		c11.6-20.4,26.3-34.6,43.2-41.3c8.1-3.3,16.9-4.8,25.7-4.1C611.4,820,610,828.8,606.7,837L606.7,837z"/>
	<path class="st1" d="M543.1,865l-3.7-3.7c-1.3,2.5-2.6,5.2-3.8,7.9l2.6,2.6C539.8,869.3,541.5,867,543.1,865z"/>
	<path class="st1" d="M550.3,883.9l2.6,2.6c2.7-1.2,5.3-2.5,7.9-3.8L557,879C555,880.5,552.7,882.2,550.3,883.9z"/>
	<path class="st1" d="M575.5,828.9c-1.8,1.8-2.9,4-3.4,6.4s-0.2,4.9,0.7,7.2c0.9,2.3,2.6,4.2,4.6,5.6c2.1,1.4,4.5,2.1,7,2.1
		c2.5,0,4.9-0.7,7-2.1c2.1-1.4,3.7-3.3,4.6-5.6c0.9-2.3,1.2-4.8,0.7-7.2c-0.5-2.4-1.7-4.7-3.4-6.4c-2.4-2.3-5.5-3.7-8.8-3.7
		S577.8,826.5,575.5,828.9z M589.6,843c-1,1-2.4,1.8-3.8,2c-1.4,0.3-3,0.1-4.3-0.4s-2.5-1.5-3.4-2.8c-0.8-1.2-1.3-2.7-1.3-4.1
		c0-1.5,0.4-2.9,1.3-4.2c0.8-1.2,2-2.2,3.4-2.8s2.9-0.7,4.3-0.4c1.4,0.3,2.8,1,3.8,2c1.4,1.4,2.2,3.3,2.2,5.3
		C591.8,839.7,591,841.6,589.6,843z"/>
</g>
<g id="Qa">
	<path class="st1" d="M53,720H41H29c-0.4,0-0.8-0.2-1.1-0.5c-0.3-0.3-0.5-0.7-0.5-1.1c0-0.4,0.2-0.8,0.5-1.1
		c0.1-0.1,0.3-0.3,0.5-0.3c0.2-0.1,0.4-0.1,0.6-0.1h12h12c0.4,0,0.8,0.2,1.1,0.5c0.3,0.3,0.5,0.7,0.5,1.1c0,0.4-0.2,0.8-0.5,1.1
		c-0.1,0.1-0.3,0.3-0.5,0.3C53.4,720,53.2,720,53,720z"/>
	<path class="st1" d="M53,696H41H29c-0.3,0-0.6-0.1-0.9-0.3c-0.3-0.2-0.5-0.4-0.6-0.7c-0.1-0.3-0.2-0.6-0.1-0.9
		c0.1-0.3,0.2-0.6,0.4-0.8c0.3-0.3,0.7-0.5,1.1-0.5h12h12c0.4,0,0.8,0.2,1.1,0.5c0.1,0.1,0.3,0.3,0.3,0.5c0.1,0.2,0.1,0.4,0.1,0.6
		c0,0.4-0.2,0.8-0.5,1.1C53.8,695.8,53.4,696,53,696L53,696z"/>
	<path class="st0" d="M85.3,653.1c-0.7-0.7-1.6-1.3-2.5-1.7c-1-0.4-2-0.6-3-0.6h-4.9h-4.9v5.7h9.7c0.6,0,1.1,0.2,1.5,0.6
		c0.4,0.4,0.6,0.9,0.6,1.5l-0.1,38.8l-0.1,38.8c0,0.3-0.1,0.5-0.2,0.8c-0.1,0.3-0.3,0.5-0.5,0.7c-0.2,0.2-0.4,0.3-0.7,0.5
		c-0.3,0.1-0.5,0.2-0.8,0.2l-27.9-0.1l-27.9-0.1c-0.5,0-1.1-0.2-1.5-0.6c-0.4-0.4-0.6-0.9-0.6-1.5l0.1-38.8l0.1-38.8
		c0-0.6,0.2-1.1,0.6-1.5c0.4-0.4,0.9-0.6,1.5-0.6h9.5v-5.7H24c-2.1,0-4.1,0.8-5.5,2.3c-1.5,1.5-2.3,3.4-2.3,5.5l-0.1,38.8L16,736
		c0,1,0.2,2,0.6,3c0.4,1,1,1.8,1.7,2.5c0.7,0.7,1.6,1.3,2.5,1.7c0.9,0.4,2,0.6,3,0.6l27.9,0.1l27.9,0.1c2.1,0,4.1-0.8,5.5-2.3
		c1.5-1.5,2.3-3.4,2.3-5.5l0.1-38.8l0.1-38.8c0-1-0.2-2-0.6-3C86.6,654.7,86,653.8,85.3,653.1z"/>
	<path class="st3" d="M60.1,650.7L60.1,650.7c0-0.1,0-0.1,0-0.1c0-0.1,0-0.2,0-0.3c0-0.1,0-0.2,0-0.3c-0.1-2.2-1-4.2-2.5-5.7
		c-1.6-1.5-3.6-2.3-5.8-2.3c-2.2,0-4.3,0.8-5.8,2.3s-2.5,3.6-2.5,5.7c0,0.1,0,0.2,0,0.3c0,0.1,0,0.2,0,0.3h-4.9h-5v7.2
		c0,1.4,0.6,2.8,1.6,3.8c1,1,2.4,1.6,3.8,1.6h25.9c0.7,0,1.4-0.1,2-0.4c0.6-0.3,1.2-0.7,1.7-1.2c0.5-0.5,0.9-1.1,1.2-1.7
		c0.3-0.6,0.4-1.3,0.4-2v-7h-5L60.1,650.7z M51.8,645.9c1.1,0,2.2,0.4,3,1.2c0.8,0.8,1.2,1.8,1.2,2.9c0,0.1,0,0.2,0,0.3
		c0,0.1,0,0.2,0,0.3c-0.2,1-0.6,1.9-1.4,2.5c-0.8,0.7-1.7,1-2.7,1c-1,0-2-0.4-2.7-1c-0.7-0.7-1.2-1.6-1.4-2.5c0-0.1,0-0.2,0-0.3
		c0-0.1,0-0.2,0-0.3c0-1.1,0.4-2.2,1.2-3c0.8-0.8,1.8-1.2,3-1.2L51.8,645.9z"/>
	<path class="st0" d="M75.4,713.4l-1.5-1.5l-1.5-1.5l-5.2,5.2l-5.2-5.2l-1.5,1.5l-1.5,1.5l5.2,5.2l-5.2,5.2l1.5,1.5l1.5,1.5l5.2-5.2
		l5.2,5.2l1.5-1.5l1.5-1.5l-5.2-5.2L75.4,713.4z"/>
	<path class="st0" d="M66.6,698.8l-4.3-3.9l-4.3-3.9l1.4-1.6l1.4-1.5l2.9,2.6l2.9,2.6l3.8-3.7l3.8-3.7l1.5,1.5l1.5,1.5l-5.2,5.1
		L66.6,698.8z"/>
</g>
<g id="Support">
	<path class="st1" d="M49.4,1027.1L33.9,1013l3.2-3.6l12.1,11l15.5-15.2l3.4,3.4L49.4,1027.1z"/>
	<path class="st0" d="M96.8,1004.3l-7.2-1.2c-0.7-2.4-1.7-4.7-2.9-6.9l4.2-5.9c0.9-1.2,1.3-2.7,1.2-4.2c-0.1-1.5-0.8-2.9-1.8-3.9
		l-6.4-6.4c-1-1-2.4-1.7-3.9-1.8c-1.5-0.1-2.9,0.3-4.2,1.1l-5.9,4.2c-2.3-1.2-4.7-2.2-7.2-3l-1.2-7c-0.2-1.5-1-2.8-2.2-3.8
		c-1.1-1-2.6-1.5-4.1-1.5h-9c-1.5,0-2.9,0.5-4.1,1.5c-1.1,1-1.9,2.3-2.1,3.8l-1.2,7.2c-2.4,0.8-4.7,1.7-6.9,2.9l-5.9-4.2
		c-1.1-0.8-2.4-1.2-3.7-1.1c-0.8,0-1.6,0.2-2.4,0.5c-0.8,0.3-1.5,0.8-2,1.4l-6.4,6.3c-1.1,1.1-1.7,2.5-1.8,3.9
		c-0.1,1.5,0.3,3,1.1,4.2l4.3,6c-1.2,2.2-2.1,4.5-2.8,6.9l-7,1.2c-1.5,0.2-2.8,1-3.8,2.2c-1,1.2-1.5,2.6-1.5,4.1v9
		c0,1.5,0.5,2.9,1.5,4.1s2.3,1.9,3.8,2.1l7.2,1.2c0.8,2.4,1.7,4.7,2.9,6.9l-4.2,5.8c-0.9,1.2-1.3,2.7-1.2,4.2
		c0.1,1.5,0.8,2.9,1.8,3.9l6.3,6.3c1.1,1.1,2.4,1.7,3.9,1.8c1.5,0.1,3-0.3,4.2-1.1l6-4.2c2.2,1.1,4.4,2.1,6.7,2.8l1.2,7.1
		c0.2,1.5,1,2.8,2.1,3.8c1.1,1,2.6,1.5,4.1,1.5h9c1.5,0,2.9-0.5,4.1-1.5c1.1-1,1.9-2.3,2.1-3.8l1.2-7.1c2.4-0.7,4.7-1.7,6.9-2.9
		l5.9,4.2c1.1,0.8,2.4,1.2,3.7,1.2c0.8,0,1.6-0.2,2.4-0.5c0.8-0.3,1.5-0.8,2-1.4l6.4-6.3c1.1-1.1,1.7-2.5,1.8-3.9
		c0.1-1.5-0.3-3-1.1-4.2l-4.2-6c1.2-2.2,2.2-4.5,2.9-6.9l7.2-1.2c1.5-0.2,2.8-1,3.8-2.1c1-1.1,1.5-2.6,1.5-4.1v-9
		c0-1.5-0.5-3-1.5-4.1C99.6,1005.3,98.3,1004.5,96.8,1004.3z M96.3,1019.5c0,0.1,0,0.3-0.1,0.4c-0.1,0.1-0.2,0.2-0.3,0.2l-9,1.5
		c-0.5,0.1-1.1,0.3-1.5,0.7c-0.4,0.4-0.7,0.9-0.8,1.4c-0.8,3.1-2.1,6.1-3.7,8.9c-0.3,0.5-0.4,1-0.4,1.6c0,0.6,0.2,1.1,0.5,1.5
		l5.3,7.4c0.1,0.1,0.1,0.2,0.1,0.4c0,0.1-0.1,0.2-0.2,0.3l-6.3,6.3c-0.1,0.1-0.1,0.1-0.2,0.1c-0.1,0-0.1,0-0.2,0
		c-0.1,0-0.2,0-0.3-0.1l-7.4-5.3c-0.5-0.3-1-0.5-1.5-0.5c-0.6,0-1.1,0.1-1.6,0.4c-2.8,1.7-5.8,2.9-8.9,3.7c-0.5,0.1-1,0.4-1.4,0.8
		c-0.4,0.4-0.6,0.9-0.7,1.5l-1.5,8.9c0,0.1-0.1,0.2-0.2,0.3c-0.1,0.1-0.2,0.1-0.4,0.1h-9c-0.1,0-0.3-0.1-0.4-0.1
		c-0.1-0.1-0.2-0.2-0.2-0.3l-1.5-8.9c-0.1-0.6-0.3-1.1-0.7-1.5c-0.4-0.4-0.9-0.7-1.4-0.8c-3.1-0.8-6-2-8.7-3.6
		c-0.4-0.2-0.9-0.4-1.4-0.4c-0.6,0-1.2,0.2-1.7,0.5l-7.5,5.3c-0.1,0.1-0.2,0.1-0.3,0.1c-0.1,0-0.1,0-0.2,0c-0.1,0-0.1-0.1-0.2-0.1
		L16,1044c-0.1-0.1-0.1-0.2-0.2-0.3c0-0.1,0-0.3,0.1-0.4l5.2-7.4c0.3-0.4,0.5-1,0.5-1.5c0-0.6-0.1-1.1-0.4-1.6
		c-1.7-2.8-2.9-5.8-3.7-8.9c-0.1-0.5-0.4-1-0.8-1.4c-0.4-0.4-0.9-0.6-1.5-0.7l-9.1-1.5c-0.1,0-0.3-0.1-0.3-0.2s-0.1-0.2-0.1-0.4v-9
		c0-0.1,0-0.3,0.1-0.4c0.1-0.1,0.2-0.2,0.3-0.2l8.9-1.5c0.6-0.1,1.1-0.3,1.5-0.7c0.4-0.4,0.7-0.9,0.8-1.4c0.8-3.1,2-6.1,3.6-8.9
		c0.3-0.5,0.4-1,0.4-1.6c0-0.6-0.2-1.1-0.5-1.5l-5.3-7.5c-0.1-0.1-0.1-0.2-0.1-0.4c0-0.1,0.1-0.3,0.2-0.3L22,980
		c0.1-0.1,0.1-0.1,0.2-0.1c0.1,0,0.1,0,0.2,0c0.1,0,0.2,0,0.3,0.1l7.4,5.2c0.5,0.3,1,0.5,1.6,0.5c0.6,0,1.1-0.1,1.6-0.4
		c2.8-1.7,5.8-2.9,8.9-3.8c0.5-0.1,1-0.4,1.4-0.8c0.4-0.4,0.6-0.9,0.7-1.5l1.5-9c0-0.1,0.1-0.3,0.2-0.3c0.1-0.1,0.2-0.1,0.4-0.1h9
		c0.1,0,0.3,0,0.4,0.1c0.1,0.1,0.2,0.2,0.2,0.3l1.5,8.9c0.1,0.6,0.3,1.1,0.7,1.5c0.4,0.4,0.9,0.7,1.4,0.8c3.2,0.8,6.3,2,9.1,3.7
		c0.5,0.3,1,0.4,1.6,0.4c0.6,0,1.1-0.2,1.5-0.5l7.4-5.3c0.1-0.1,0.2-0.1,0.3-0.1c0.2,0,0.3,0.1,0.4,0.2l6.4,6.4
		c0.1,0.1,0.1,0.2,0.2,0.4c0,0.1,0,0.3-0.1,0.4l-5.3,7.4c-0.3,0.5-0.5,1-0.5,1.5c0,0.6,0.1,1.1,0.4,1.6c1.6,2.8,2.9,5.8,3.7,8.9
		c0.1,0.5,0.4,1,0.8,1.4s0.9,0.6,1.5,0.7l9,1.5c0.1,0,0.3,0.1,0.3,0.2c0.1,0.1,0.1,0.2,0.1,0.4L96.3,1019.5L96.3,1019.5z"/>
	<path class="st0" d="M51,1042.5c-5.3,0-10.5-1.6-14.9-4.5c-4.4-3-7.8-7.1-9.9-12c-2-4.9-2.6-10.3-1.5-15.5c1-5.2,3.6-10,7.3-13.7
		c3.7-3.8,8.5-6.3,13.7-7.4s10.6-0.5,15.5,1.5c4.9,2,9.1,5.5,12,9.9c3,4.4,4.5,9.6,4.5,14.9c0,7.1-2.8,13.9-7.8,19
		C64.9,1039.7,58.1,1042.5,51,1042.5z M51,993.7c-4.4,0-8.6,1.3-12.2,3.7c-3.6,2.4-6.4,5.9-8.1,9.9c-1.7,4-2.1,8.5-1.2,12.7
		c0.9,4.3,3,8.2,6,11.3c3.1,3.1,7,5.2,11.3,6c4.3,0.8,8.7,0.4,12.7-1.3c4-1.7,7.4-4.5,9.9-8.1c2.4-3.6,3.7-7.9,3.7-12.2
		c0-5.8-2.3-11.4-6.5-15.5C62.4,996,56.8,993.7,51,993.7L51,993.7z"/>
</g>
</svg>
