<svg xmlns="http://www.w3.org/2000/svg" viewBox="0 0 101.77 101.77"><defs><style>.cls-1{fill:#333;}.cls-2{fill:#c1272d;}</style></defs><title>Ресурс 10</title><g id="Слой_2" data-name="Слой 2"><g id="Слой_1-2" data-name="Слой 1"><path class="cls-1" d="M101.25,2.5a2.52,2.52,0,0,0-2-2C98.74.42,86-2,69.35,4.54c-15.84,6.21-28,17.68-37.26,30.2a16.87,16.87,0,0,0-9.7-2.46C15.15,32.62,7.81,37.24.58,46A2.51,2.51,0,0,0,2.4,50.11c7.64.37,15.11,1.29,18.75,2.23-1.85,3.51-3.49,7-4.93,10.25a2.51,2.51,0,0,0,.52,2.79l4.56,4.56C18,75.35,15.5,80.71,15.5,83.76A2.51,2.51,0,0,0,18,86.27c3,0,8.41-2.52,13.82-5.8L36.39,85a2.51,2.51,0,0,0,1.78.74,2.54,2.54,0,0,0,1-.21c3.29-1.45,6.73-3.09,10.25-4.94,1,3.88,1.9,11.84,2.23,18.75a2.49,2.49,0,0,0,1.49,2.18,2.43,2.43,0,0,0,1,.22,2.52,2.52,0,0,0,1.6-.58C64.53,94,69.15,86.62,69.49,79.38A16.87,16.87,0,0,0,67,69.68c12.52-9.23,24-21.42,30.2-37.26C103.77,15.73,101.35,3,101.25,2.5ZM7.88,45.41c5-5.06,10-7.84,14.64-8.1a12,12,0,0,1,6.67,1.54c-2,3-3.89,6-5.6,9C19.54,46.55,13.05,45.81,7.88,45.41Zm17.45,9.78L29,58.86c-1.58,2-3.28,4.3-4.93,6.74l-2.55-2.55C22.74,60.34,24,57.72,25.33,55.19Zm-3.79,25A59.92,59.92,0,0,1,25,73.61c.51-.86,1-1.74,1.6-2.62.37-.59.75-1.18,1.13-1.76,1.6-2.43,3.28-4.79,4.86-6.81h0l.46-.58c1-1.27,2-2.38,2.83-3.24.4-.4.77-.75,1.11-1a5.49,5.49,0,0,1,3.6-1.41,6,6,0,0,1,1.53.21,4.59,4.59,0,0,1,3.31,3.31,5.37,5.37,0,0,1-1.2,5.13,14.35,14.35,0,0,1-1,1.11,38.68,38.68,0,0,1-3.46,3l-.34.27c-2,1.61-4.41,3.27-6.83,4.84-.63.41-1.27.8-1.9,1.19-.84.53-1.69,1-2.51,1.51A64.27,64.27,0,0,1,21.54,80.19Zm17.18.06L36.17,77.7c2.44-1.65,4.76-3.35,6.74-4.93h0l3.67,3.67C44.05,77.75,41.43,79,38.72,80.25Zm25.75-1.11c-.22,4.64-3,9.68-8.11,14.75-.4-5.17-1.14-11.66-2.48-15.7,3-1.72,6-3.58,9-5.61A12,12,0,0,1,64.47,79.14Zm28-48.26c-6.69,16.8-20.82,31.5-41.24,43.06l-4.47-4.48A16.65,16.65,0,0,0,48.06,68a10.37,10.37,0,0,0,2.21-9.63,9.54,9.54,0,0,0-6.91-6.91,10.37,10.37,0,0,0-9.63,2.21,16.65,16.65,0,0,0-1.42,1.34l-4.48-4.47C39.39,30.16,54.09,16,70.89,9.34A56.67,56.67,0,0,1,96.54,5.23,56.8,56.8,0,0,1,92.43,30.88Z"/><path class="cls-2" d="M29,58.86l-3.67-3.67c-1.31,2.53-2.59,5.15-3.81,7.86l2.55,2.55C25.72,63.16,27.42,60.84,29,58.86Z"/><path class="cls-2" d="M36.17,77.7l2.55,2.55c2.71-1.22,5.33-2.5,7.86-3.81l-3.67-3.67C40.93,74.35,38.61,76.05,36.17,77.7Z"/><path class="cls-2" d="M61.31,22.81a12.48,12.48,0,1,0,17.65,0A12.51,12.51,0,0,0,61.31,22.81ZM75.4,36.9a7.45,7.45,0,1,1,0-10.53A7.46,7.46,0,0,1,75.4,36.9Z"/></g></g></svg>