<svg xmlns="http://www.w3.org/2000/svg" viewBox="0 0 96.06 86.95"><defs><style>.cls-1{fill:#333;}.cls-2{fill:#c1272d;}</style></defs><title>Ресурс 14</title><g id="Слой_2" data-name="Слой 2"><g id="Слой_1-2" data-name="Слой 1"><polygon class="cls-1" points="15.97 23.95 0.72 10.12 4.6 5.84 15.9 16.1 33.1 0 37.04 4.22 15.97 23.95"/><path class="cls-2" d="M92.09,12.89H47a4,4,0,0,1,0-7.95H92.09a4,4,0,0,1,0,8Z"/><polygon class="cls-1" points="15.24 55.45 0 41.62 3.88 37.34 15.18 47.6 32.37 31.5 36.32 35.72 15.24 55.45"/><path class="cls-2" d="M92.09,47.18H47a4,4,0,0,1,0-7.94H92.09a4,4,0,0,1,0,7.94Z"/><polygon class="cls-1" points="15.24 86.95 0 73.12 3.88 68.84 15.18 79.1 32.37 63 36.32 67.22 15.24 86.95"/><path class="cls-2" d="M92.09,81.47H47a4,4,0,0,1,0-7.94H92.09a4,4,0,0,1,0,7.94Z"/></g></g></svg>