<svg xmlns="http://www.w3.org/2000/svg" viewBox="0 0 76.67 109.53"><defs><style>.cls-1{fill:#c1272d;}.cls-2{fill:#333;}.cls-3{fill:#b3b3b3;}</style></defs><title>Ресурс 13</title><g id="Слой_2" data-name="Слой 2"><g id="Слой_1-2" data-name="Слой 1"><path class="cls-1" d="M39.61,83.84h0l-12.86,0-12.86,0a1.69,1.69,0,0,1-1.19-.49,1.71,1.71,0,0,1-.49-1.19,1.68,1.68,0,0,1,.5-1.18,1.63,1.63,0,0,1,1.18-.49h0l12.86,0,12.86,0A1.71,1.71,0,0,1,40.8,81a1.69,1.69,0,0,1,0,2.37A1.63,1.63,0,0,1,39.61,83.84Z"/><path class="cls-1" d="M39.66,58.14h0l-12.86,0-12.86,0a1.68,1.68,0,0,1-1.19-2.87,1.71,1.71,0,0,1,1.19-.49h0l12.87,0,12.86,0a1.68,1.68,0,0,1,1.18.5,1.64,1.64,0,0,1,.49,1.19,1.67,1.67,0,0,1-1.67,1.67Z"/><path class="cls-2" d="M74.23,12.15A8.36,8.36,0,0,0,68.3,9.68l-5.2,0H57.9V15.8H68.29a2.32,2.32,0,0,1,1.58.66,2.27,2.27,0,0,1,.65,1.59l-.1,41.54-.11,41.54a2.2,2.2,0,0,1-.66,1.58,2.23,2.23,0,0,1-1.58.65l-29.84-.07-29.85-.07A2.24,2.24,0,0,1,6.15,101l.1-41.54.1-41.54A2.3,2.3,0,0,1,7,16.33a2.25,2.25,0,0,1,1.58-.65v0H18.77V9.55H8.59A8.38,8.38,0,0,0,.21,17.89L.1,59.44,0,101a8.38,8.38,0,0,0,8.36,8.4l29.85.08,29.85.07h0a8.38,8.38,0,0,0,8.38-8.36l.1-41.55.11-41.54A8.39,8.39,0,0,0,74.23,12.15Z"/><path class="cls-3" d="M47.24,9.62V9.56s0,0,0-.06,0-.18,0-.28,0-.18,0-.28a8.95,8.95,0,0,0-17.89,0,2.53,2.53,0,0,0,0,.28c0,.1,0,.19,0,.28v0s0,0,0,0H24.1l-5.33,0v7.67a5.7,5.7,0,0,0,5.7,5.7H52.2a5.7,5.7,0,0,0,5.7-5.7V9.65H52.57ZM38.33,4.47a4.49,4.49,0,0,1,4.48,4.47,1.87,1.87,0,0,1,0,.34c0,.11,0,.22,0,.33a4.52,4.52,0,0,1-1.49,2.71,4.41,4.41,0,0,1-5.84,0,4.48,4.48,0,0,1-1.48-2.72c0-.11,0-.21,0-.32s0-.22,0-.33a4.47,4.47,0,0,1,4.47-4.47Z"/><polygon class="cls-2" points="63.58 76.76 62 75.18 60.41 73.6 54.87 79.15 49.32 73.6 47.74 75.18 46.16 76.76 51.71 82.31 46.16 87.85 47.74 89.44 49.32 91.02 54.87 85.47 60.41 91.02 62 89.44 63.58 87.85 58.03 82.31 63.58 76.76"/><polygon class="cls-2" points="54.17 61.1 49.52 56.89 44.87 52.67 46.37 51.01 47.88 49.36 50.96 52.16 54.05 54.95 58.08 51 62.11 47.04 63.67 48.63 65.24 50.23 59.7 55.66 54.17 61.1"/></g></g></svg>