<svg xmlns="http://www.w3.org/2000/svg" viewBox="0 0 93.75 93"><defs><style>.cls-1{fill:#333;}.cls-2{fill:#c1272d;}</style></defs><title>Ресурс 15</title><g id="Слой_2" data-name="Слой 2"><g id="Слой_1-2" data-name="Слой 1"><rect class="cls-1" x="20" y="33.25" width="32.5" height="3"/><rect class="cls-1" x="20" y="44.58" width="32.5" height="3"/><rect class="cls-1" x="20" y="55.92" width="32.5" height="3"/><rect class="cls-1" x="20" y="67.25" width="32.5" height="3"/><path class="cls-1" d="M67.25,93h-62A5.26,5.26,0,0,1,0,87.75V5.25A5.26,5.26,0,0,1,5.25,0h47A20.27,20.27,0,0,1,72.5,20.25v67.5A5.26,5.26,0,0,1,67.25,93ZM5.5,87.5H67V20.25A14.77,14.77,0,0,0,52.25,5.5H5.5Z"/><path class="cls-2" d="M93.09,85.66,79.28,71.85c.25-.29.5-.59.73-.9A25.61,25.61,0,0,0,85.28,55.3,25.88,25.88,0,1,0,59.41,81.17a25.61,25.61,0,0,0,16.71-6.12L89.91,88.84a2.25,2.25,0,0,0,3.18-3.18ZM39,55.3a20.38,20.38,0,1,1,40.75,0A20.37,20.37,0,0,1,59.41,75.67,20.4,20.4,0,0,1,39,55.3Z"/></g></g></svg>