<svg xmlns="http://www.w3.org/2000/svg" viewBox="0 0 101.3 101.3"><defs><style>.cls-1{fill:#c1272d;}.cls-2{fill:#333;}</style></defs><title>Ресурс 9</title><g id="Слой_2" data-name="Слой 2"><g id="Слой_1-2" data-name="Слой 1"><polygon class="cls-1" points="49.09 62.62 33.7 48.65 36.92 45.11 48.96 56.03 64.31 40.95 67.66 44.36 49.09 62.62"/><path class="cls-2" d="M96.11,40,89,38.81a39.66,39.66,0,0,0-2.86-6.9l4.19-5.86A6.23,6.23,0,0,0,89.66,18l-6.31-6.31a6.23,6.23,0,0,0-8-.68l-5.88,4.19a40.43,40.43,0,0,0-7.15-2.94l-1.19-7A6.25,6.25,0,0,0,54.91,0H46a6.25,6.25,0,0,0-6.18,5.23L38.6,12.42a39.5,39.5,0,0,0-6.88,2.9L25.9,11.13A6.23,6.23,0,0,0,22.26,10a6.14,6.14,0,0,0-4.42,1.84l-6.33,6.3a6.28,6.28,0,0,0-.68,8.07l4.24,5.94A38.8,38.8,0,0,0,12.25,39l-7,1.19A6.24,6.24,0,0,0,0,46.41v8.9a6.25,6.25,0,0,0,5.23,6.18l7.19,1.23a39.5,39.5,0,0,0,2.9,6.88l-4.17,5.8a6.23,6.23,0,0,0,.68,8.06l6.3,6.3a6.24,6.24,0,0,0,8.05.68l5.94-4.23A40.21,40.21,0,0,0,38.81,89L40,96.07a6.25,6.25,0,0,0,6.18,5.23H55.1a6.25,6.25,0,0,0,6.18-5.23L62.49,89a39.66,39.66,0,0,0,6.9-2.86l5.86,4.19a6.22,6.22,0,0,0,3.64,1.17h0a6.24,6.24,0,0,0,4.42-1.84l6.31-6.31a6.27,6.27,0,0,0,.67-8.06L86.1,69.36A39.3,39.3,0,0,0,89,62.47l7.11-1.19a6.25,6.25,0,0,0,5.23-6.18V46.19A6.19,6.19,0,0,0,96.11,40ZM95.62,55.1a.54.54,0,0,1-.46.55l-8.89,1.48A2.83,2.83,0,0,0,84,59.23a33.72,33.72,0,0,1-3.69,8.86,2.89,2.89,0,0,0,.13,3.12l5.23,7.36a.56.56,0,0,1-.07.72l-6.3,6.3a.54.54,0,0,1-.4.17.53.53,0,0,1-.32-.1l-7.34-5.23a2.87,2.87,0,0,0-3.11-.13A33.92,33.92,0,0,1,59.25,84a2.8,2.8,0,0,0-2.1,2.28l-1.5,8.89a.54.54,0,0,1-.55.46H46.19a.56.56,0,0,1-.55-.46l-1.48-8.89A2.82,2.82,0,0,0,42.07,84a35.27,35.27,0,0,1-8.68-3.56A3,3,0,0,0,32,80.05a2.79,2.79,0,0,0-1.65.53l-7.4,5.27a.7.7,0,0,1-.32.1.56.56,0,0,1-.4-.16l-6.31-6.31a.57.57,0,0,1-.06-.72l5.2-7.3a2.89,2.89,0,0,0,.13-3.13,33.45,33.45,0,0,1-3.72-8.85,2.9,2.9,0,0,0-2.29-2.09l-9-1.53a.54.54,0,0,1-.47-.55v-8.9a.54.54,0,0,1,.47-.55L15,44.37a2.87,2.87,0,0,0,2.31-2.11,33.72,33.72,0,0,1,3.62-8.89,2.82,2.82,0,0,0-.15-3.09l-5.27-7.41a.56.56,0,0,1,.06-.71l6.31-6.31a.54.54,0,0,1,.4-.17.5.5,0,0,1,.32.11L29.9,21a2.89,2.89,0,0,0,3.13.13,33.81,33.81,0,0,1,8.85-3.73A2.88,2.88,0,0,0,44,15.11L45.5,6.16a.54.54,0,0,1,.55-.47H55a.54.54,0,0,1,.55.47L57,15a2.87,2.87,0,0,0,2.11,2.31A34.26,34.26,0,0,1,68.18,21a2.87,2.87,0,0,0,3.11-.12l7.3-5.25a.59.59,0,0,1,.32-.11.57.57,0,0,1,.4.17L85.62,22a.57.57,0,0,1,.06.72l-5.23,7.34a2.85,2.85,0,0,0-.12,3.11A34.09,34.09,0,0,1,84,42.05a2.79,2.79,0,0,0,2.28,2.09l8.89,1.5a.56.56,0,0,1,.47.55V55.1Z"/><path class="cls-2" d="M50.65,78A26.63,26.63,0,1,1,77.27,51.33,26.66,26.66,0,0,1,50.65,78Zm0-48.46A21.84,21.84,0,1,0,72.49,51.33,21.86,21.86,0,0,0,50.65,29.5Z"/></g></g></svg>